<svg width="16" height="16" viewBox="0 0 16 16" fill="none" xmlns="http://www.w3.org/2000/svg">
<path fill-rule="evenodd" clip-rule="evenodd" d="M5.00122 4H9.75322C10.3494 4.00088 10.9208 4.23833 11.3421 4.66019C11.7633 5.08205 11.9999 5.65384 11.9999 6.25V12.5C12.5303 12.5 13.039 12.2893 13.4141 11.9142C13.7892 11.5391 13.9999 11.0304 13.9999 10.5V4.072C13.9999 3.06867 13.2499 2.198 12.2239 2.112C12.0744 2.09986 11.9249 2.08875 11.7752 2.07867C11.6065 1.75353 11.3517 1.48098 11.0386 1.29076C10.7255 1.10054 10.3662 0.999966 9.99989 1H8.99989C8.63356 0.999966 8.27426 1.10054 7.96119 1.29076C7.64812 1.48098 7.39331 1.75353 7.22455 2.07867C7.07455 2.08867 6.92455 2.1 6.77589 2.112C5.77455 2.19667 5.03589 3.028 5.00122 4ZM8.99989 2C8.73467 2 8.48032 2.10536 8.29278 2.29289C8.10524 2.48043 7.99989 2.73478 7.99989 3H10.9999C10.9999 2.73478 10.8945 2.48043 10.707 2.29289C10.5195 2.10536 10.2651 2 9.99989 2H8.99989Z" fill="black" fill-opacity="0.5"/>
<path fill-rule="evenodd" clip-rule="evenodd" d="M2 6.25C2 5.55933 2.56 5 3.25 5H9.75C10.4407 5 11 5.56 11 6.25V13.75C11 14.44 10.44 15 9.75 15H3.25C2.91848 15 2.60054 14.8683 2.36612 14.6339C2.1317 14.3995 2 14.0815 2 13.75V6.25ZM8.39067 9.31267C8.47359 9.20906 8.51196 9.07675 8.49733 8.94485C8.4827 8.81295 8.41628 8.69226 8.31267 8.60933C8.20906 8.52641 8.07675 8.48804 7.94485 8.50267C7.81295 8.5173 7.69226 8.58372 7.60933 8.68733L5.95867 10.7513L5.35333 10.1467C5.25855 10.0583 5.13319 10.0103 5.00365 10.0125C4.87412 10.0148 4.75053 10.0673 4.65892 10.1589C4.56731 10.2505 4.51484 10.3741 4.51255 10.5037C4.51026 10.6332 4.55835 10.7586 4.64667 10.8533L5.64667 11.8533C5.6964 11.9031 5.75606 11.9417 5.82175 11.9668C5.88744 11.9919 5.95769 12.0029 6.02791 11.999C6.09812 11.9951 6.16672 11.9764 6.22923 11.9442C6.29174 11.912 6.34675 11.8669 6.39067 11.812L8.39067 9.31267Z" fill="black" fill-opacity="0.5"/>
</svg>
